<svg width="69" height="61" viewBox="0 0 69 61" fill="none" xmlns="http://www.w3.org/2000/svg">
<path d="M34.6656 25.6537C34.571 25.7373 34.429 25.7373 34.3344 25.6537L20.6862 13.5879C20.5736 13.4884 20.5736 13.3128 20.6862 13.2133L34.3344 1.14745C34.429 1.06385 34.571 1.06385 34.6656 1.14745L48.3138 13.2133C48.4264 13.3128 48.4264 13.4884 48.3138 13.5879L34.6656 25.6537ZM54.0075 42.7531C53.913 42.8367 53.7709 42.8367 53.6764 42.7531L40.0281 30.6873C39.9156 30.5878 39.9156 30.4122 40.0281 30.3127L53.6764 18.2469C53.7709 18.1633 53.913 18.1633 54.0075 18.2469L67.6558 30.3127C67.7683 30.4122 67.7683 30.5878 67.6558 30.6873L54.0075 42.7531ZM15.3236 42.7531C15.2291 42.8367 15.087 42.8367 14.9925 42.7531L1.34422 30.6873C1.23166 30.5878 1.23166 30.4122 1.34421 30.3127L14.9925 18.2469C15.087 18.1633 15.2291 18.1633 15.3236 18.2469L28.9719 30.3127C29.0844 30.4122 29.0844 30.5878 28.9719 30.6873L15.3236 42.7531ZM34.6656 59.8526C34.571 59.9362 34.429 59.9362 34.3344 59.8526L20.6862 47.7867C20.5736 47.6872 20.5736 47.5116 20.6862 47.4121L34.3344 35.3463C34.429 35.2627 34.571 35.2627 34.6656 35.3463L48.3138 47.4121C48.4264 47.5116 48.4264 47.6872 48.3138 47.7867L34.6656 59.8526Z" fill="#2B2B2B" stroke="#2B2B2B" stroke-width="1.5"/>
</svg>
